<mxfile host="app.diagrams.net" agent="Mozilla/5.0 (Windows NT 10.0; Win64; x64) AppleWebKit/537.36 (KHTML, like Gecko) Chrome/135.0.0.0 Safari/537.36 Edg/135.0.0.0" version="26.2.14">
  <diagram name="PÃ¡gina-1" id="yguYZhqqWHvLcevI1DFB">
    <mxGraphModel>
      <root>
        <mxCell id="0" />
        <mxCell id="1" parent="0" />
        <mxCell id="2" value="Cliente" style="swimlane;fontStyle=1;align=center;verticalAlign=top;childLayout=stackLayout;horizontal=1;startSize=30.4;horizontalStack=0;resizeParent=1;resizeParentMax=0;resizeLast=0;collapsible=0;marginBottom=0;" vertex="1" parent="1">
          <mxGeometry x="540" y="8" width="366" height="312" as="geometry" />
        </mxCell>
        <mxCell id="3" value="+String nome" style="text;strokeColor=none;fillColor=none;align=left;verticalAlign=top;spacingLeft=4;spacingRight=4;overflow=hidden;rotatable=0;points=[[0,0.5],[1,0.5]];portConstraint=eastwest;" vertex="1" parent="2">
          <mxGeometry y="30" width="366" height="30" as="geometry" />
        </mxCell>
        <mxCell id="4" value="+String documento" style="text;strokeColor=none;fillColor=none;align=left;verticalAlign=top;spacingLeft=4;spacingRight=4;overflow=hidden;rotatable=0;points=[[0,0.5],[1,0.5]];portConstraint=eastwest;" vertex="1" parent="2">
          <mxGeometry y="61" width="366" height="30" as="geometry" />
        </mxCell>
        <mxCell id="5" value="+String telefone" style="text;strokeColor=none;fillColor=none;align=left;verticalAlign=top;spacingLeft=4;spacingRight=4;overflow=hidden;rotatable=0;points=[[0,0.5],[1,0.5]];portConstraint=eastwest;" vertex="1" parent="2">
          <mxGeometry y="91" width="366" height="30" as="geometry" />
        </mxCell>
        <mxCell id="6" value="+String email" style="text;strokeColor=none;fillColor=none;align=left;verticalAlign=top;spacingLeft=4;spacingRight=4;overflow=hidden;rotatable=0;points=[[0,0.5],[1,0.5]];portConstraint=eastwest;" vertex="1" parent="2">
          <mxGeometry y="122" width="366" height="30" as="geometry" />
        </mxCell>
        <mxCell id="7" value="+List reservas" style="text;strokeColor=none;fillColor=none;align=left;verticalAlign=top;spacingLeft=4;spacingRight=4;overflow=hidden;rotatable=0;points=[[0,0.5],[1,0.5]];portConstraint=eastwest;" vertex="1" parent="2">
          <mxGeometry y="152" width="366" height="30" as="geometry" />
        </mxCell>
        <mxCell id="8" value="+List emprestimos" style="text;strokeColor=none;fillColor=none;align=left;verticalAlign=top;spacingLeft=4;spacingRight=4;overflow=hidden;rotatable=0;points=[[0,0.5],[1,0.5]];portConstraint=eastwest;" vertex="1" parent="2">
          <mxGeometry y="182" width="366" height="30" as="geometry" />
        </mxCell>
        <mxCell id="9" value="+List multas" style="text;strokeColor=none;fillColor=none;align=left;verticalAlign=top;spacingLeft=4;spacingRight=4;overflow=hidden;rotatable=0;points=[[0,0.5],[1,0.5]];portConstraint=eastwest;" vertex="1" parent="2">
          <mxGeometry y="213" width="366" height="30" as="geometry" />
        </mxCell>
        <mxCell id="10" style="line;strokeWidth=1;fillColor=none;align=left;verticalAlign=middle;spacingTop=-1;spacingLeft=3;spacingRight=3;rotatable=0;labelPosition=right;points=[];portConstraint=eastwest;strokeColor=inherit;" vertex="1" parent="2">
          <mxGeometry y="243" width="366" height="8" as="geometry" />
        </mxCell>
        <mxCell id="11" value="+efetuarPagamento(Pagamento pagamento)" style="text;strokeColor=none;fillColor=none;align=left;verticalAlign=top;spacingLeft=4;spacingRight=4;overflow=hidden;rotatable=0;points=[[0,0.5],[1,0.5]];portConstraint=eastwest;" vertex="1" parent="2">
          <mxGeometry y="251" width="366" height="30" as="geometry" />
        </mxCell>
        <mxCell id="12" value="+emitirMulta(Multa multa)" style="text;strokeColor=none;fillColor=none;align=left;verticalAlign=top;spacingLeft=4;spacingRight=4;overflow=hidden;rotatable=0;points=[[0,0.5],[1,0.5]];portConstraint=eastwest;" vertex="1" parent="2">
          <mxGeometry y="282" width="366" height="30" as="geometry" />
        </mxCell>
        <mxCell id="13" value="Filme" style="swimlane;fontStyle=1;align=center;verticalAlign=top;childLayout=stackLayout;horizontal=1;startSize=32;horizontalStack=0;resizeParent=1;resizeParentMax=0;resizeLast=0;collapsible=0;marginBottom=0;" vertex="1" parent="1">
          <mxGeometry x="26" y="56" width="213" height="216" as="geometry" />
        </mxCell>
        <mxCell id="14" value="+String titulo" style="text;strokeColor=none;fillColor=none;align=left;verticalAlign=top;spacingLeft=4;spacingRight=4;overflow=hidden;rotatable=0;points=[[0,0.5],[1,0.5]];portConstraint=eastwest;" vertex="1" parent="13">
          <mxGeometry y="32" width="213" height="32" as="geometry" />
        </mxCell>
        <mxCell id="15" value="+String genero" style="text;strokeColor=none;fillColor=none;align=left;verticalAlign=top;spacingLeft=4;spacingRight=4;overflow=hidden;rotatable=0;points=[[0,0.5],[1,0.5]];portConstraint=eastwest;" vertex="1" parent="13">
          <mxGeometry y="64" width="213" height="32" as="geometry" />
        </mxCell>
        <mxCell id="16" value="+String diretor" style="text;strokeColor=none;fillColor=none;align=left;verticalAlign=top;spacingLeft=4;spacingRight=4;overflow=hidden;rotatable=0;points=[[0,0.5],[1,0.5]];portConstraint=eastwest;" vertex="1" parent="13">
          <mxGeometry y="96" width="213" height="32" as="geometry" />
        </mxCell>
        <mxCell id="17" value="+String anoLancamento" style="text;strokeColor=none;fillColor=none;align=left;verticalAlign=top;spacingLeft=4;spacingRight=4;overflow=hidden;rotatable=0;points=[[0,0.5],[1,0.5]];portConstraint=eastwest;" vertex="1" parent="13">
          <mxGeometry y="128" width="213" height="32" as="geometry" />
        </mxCell>
        <mxCell id="18" value="+Boolean disponivel" style="text;strokeColor=none;fillColor=none;align=left;verticalAlign=top;spacingLeft=4;spacingRight=4;overflow=hidden;rotatable=0;points=[[0,0.5],[1,0.5]];portConstraint=eastwest;" vertex="1" parent="13">
          <mxGeometry y="160" width="213" height="32" as="geometry" />
        </mxCell>
        <mxCell id="19" style="line;strokeWidth=1;fillColor=none;align=left;verticalAlign=middle;spacingTop=-1;spacingLeft=3;spacingRight=3;rotatable=0;labelPosition=right;points=[];portConstraint=eastwest;strokeColor=inherit;" vertex="1" parent="13">
          <mxGeometry y="192" width="213" height="16" as="geometry" />
        </mxCell>
        <mxCell id="20" value="Reserva" style="swimlane;fontStyle=1;align=center;verticalAlign=top;childLayout=stackLayout;horizontal=1;startSize=33.142857142857146;horizontalStack=0;resizeParent=1;resizeParentMax=0;resizeLast=0;collapsible=0;marginBottom=0;" vertex="1" parent="1">
          <mxGeometry x="93" y="393" width="205" height="240" as="geometry" />
        </mxCell>
        <mxCell id="21" value="+Date dataReserva" style="text;strokeColor=none;fillColor=none;align=left;verticalAlign=top;spacingLeft=4;spacingRight=4;overflow=hidden;rotatable=0;points=[[0,0.5],[1,0.5]];portConstraint=eastwest;" vertex="1" parent="20">
          <mxGeometry y="33" width="205" height="33" as="geometry" />
        </mxCell>
        <mxCell id="22" value="+Date dataDevolucao" style="text;strokeColor=none;fillColor=none;align=left;verticalAlign=top;spacingLeft=4;spacingRight=4;overflow=hidden;rotatable=0;points=[[0,0.5],[1,0.5]];portConstraint=eastwest;" vertex="1" parent="20">
          <mxGeometry y="66" width="205" height="33" as="geometry" />
        </mxCell>
        <mxCell id="23" value="+Filme filme" style="text;strokeColor=none;fillColor=none;align=left;verticalAlign=top;spacingLeft=4;spacingRight=4;overflow=hidden;rotatable=0;points=[[0,0.5],[1,0.5]];portConstraint=eastwest;" vertex="1" parent="20">
          <mxGeometry y="99" width="205" height="33" as="geometry" />
        </mxCell>
        <mxCell id="24" value="+Cliente cliente" style="text;strokeColor=none;fillColor=none;align=left;verticalAlign=top;spacingLeft=4;spacingRight=4;overflow=hidden;rotatable=0;points=[[0,0.5],[1,0.5]];portConstraint=eastwest;" vertex="1" parent="20">
          <mxGeometry y="133" width="205" height="33" as="geometry" />
        </mxCell>
        <mxCell id="25" style="line;strokeWidth=1;fillColor=none;align=left;verticalAlign=middle;spacingTop=-1;spacingLeft=3;spacingRight=3;rotatable=0;labelPosition=right;points=[];portConstraint=eastwest;strokeColor=inherit;" vertex="1" parent="20">
          <mxGeometry y="166" width="205" height="8" as="geometry" />
        </mxCell>
        <mxCell id="26" value="+criarReserva()" style="text;strokeColor=none;fillColor=none;align=left;verticalAlign=top;spacingLeft=4;spacingRight=4;overflow=hidden;rotatable=0;points=[[0,0.5],[1,0.5]];portConstraint=eastwest;" vertex="1" parent="20">
          <mxGeometry y="174" width="205" height="33" as="geometry" />
        </mxCell>
        <mxCell id="27" value="+cancelarReserva()" style="text;strokeColor=none;fillColor=none;align=left;verticalAlign=top;spacingLeft=4;spacingRight=4;overflow=hidden;rotatable=0;points=[[0,0.5],[1,0.5]];portConstraint=eastwest;" vertex="1" parent="20">
          <mxGeometry y="207" width="205" height="33" as="geometry" />
        </mxCell>
        <mxCell id="28" value="Emprestimo" style="swimlane;fontStyle=1;align=center;verticalAlign=top;childLayout=stackLayout;horizontal=1;startSize=33.142857142857146;horizontalStack=0;resizeParent=1;resizeParentMax=0;resizeLast=0;collapsible=0;marginBottom=0;" vertex="1" parent="1">
          <mxGeometry x="348" y="393" width="235" height="240" as="geometry" />
        </mxCell>
        <mxCell id="29" value="+Date dataEmprestimo" style="text;strokeColor=none;fillColor=none;align=left;verticalAlign=top;spacingLeft=4;spacingRight=4;overflow=hidden;rotatable=0;points=[[0,0.5],[1,0.5]];portConstraint=eastwest;" vertex="1" parent="28">
          <mxGeometry y="33" width="235" height="33" as="geometry" />
        </mxCell>
        <mxCell id="30" value="+Date dataDevolucao" style="text;strokeColor=none;fillColor=none;align=left;verticalAlign=top;spacingLeft=4;spacingRight=4;overflow=hidden;rotatable=0;points=[[0,0.5],[1,0.5]];portConstraint=eastwest;" vertex="1" parent="28">
          <mxGeometry y="66" width="235" height="33" as="geometry" />
        </mxCell>
        <mxCell id="31" value="+Filme filme" style="text;strokeColor=none;fillColor=none;align=left;verticalAlign=top;spacingLeft=4;spacingRight=4;overflow=hidden;rotatable=0;points=[[0,0.5],[1,0.5]];portConstraint=eastwest;" vertex="1" parent="28">
          <mxGeometry y="99" width="235" height="33" as="geometry" />
        </mxCell>
        <mxCell id="32" value="+Cliente cliente" style="text;strokeColor=none;fillColor=none;align=left;verticalAlign=top;spacingLeft=4;spacingRight=4;overflow=hidden;rotatable=0;points=[[0,0.5],[1,0.5]];portConstraint=eastwest;" vertex="1" parent="28">
          <mxGeometry y="133" width="235" height="33" as="geometry" />
        </mxCell>
        <mxCell id="33" style="line;strokeWidth=1;fillColor=none;align=left;verticalAlign=middle;spacingTop=-1;spacingLeft=3;spacingRight=3;rotatable=0;labelPosition=right;points=[];portConstraint=eastwest;strokeColor=inherit;" vertex="1" parent="28">
          <mxGeometry y="166" width="235" height="8" as="geometry" />
        </mxCell>
        <mxCell id="34" value="+registrarEmprestimo()" style="text;strokeColor=none;fillColor=none;align=left;verticalAlign=top;spacingLeft=4;spacingRight=4;overflow=hidden;rotatable=0;points=[[0,0.5],[1,0.5]];portConstraint=eastwest;" vertex="1" parent="28">
          <mxGeometry y="174" width="235" height="33" as="geometry" />
        </mxCell>
        <mxCell id="35" value="+finalizarEmprestimo()" style="text;strokeColor=none;fillColor=none;align=left;verticalAlign=top;spacingLeft=4;spacingRight=4;overflow=hidden;rotatable=0;points=[[0,0.5],[1,0.5]];portConstraint=eastwest;" vertex="1" parent="28">
          <mxGeometry y="207" width="235" height="33" as="geometry" />
        </mxCell>
        <mxCell id="36" value="Pagamento" style="swimlane;fontStyle=1;align=center;verticalAlign=top;childLayout=stackLayout;horizontal=1;startSize=36.8;horizontalStack=0;resizeParent=1;resizeParentMax=0;resizeLast=0;collapsible=0;marginBottom=0;" vertex="1" parent="1">
          <mxGeometry x="663" y="417" width="225" height="192" as="geometry" />
        </mxCell>
        <mxCell id="37" value="+Double valor" style="text;strokeColor=none;fillColor=none;align=left;verticalAlign=top;spacingLeft=4;spacingRight=4;overflow=hidden;rotatable=0;points=[[0,0.5],[1,0.5]];portConstraint=eastwest;" vertex="1" parent="36">
          <mxGeometry y="37" width="225" height="37" as="geometry" />
        </mxCell>
        <mxCell id="38" value="+Date dataPagamento" style="text;strokeColor=none;fillColor=none;align=left;verticalAlign=top;spacingLeft=4;spacingRight=4;overflow=hidden;rotatable=0;points=[[0,0.5],[1,0.5]];portConstraint=eastwest;" vertex="1" parent="36">
          <mxGeometry y="74" width="225" height="37" as="geometry" />
        </mxCell>
        <mxCell id="39" value="+Cliente cliente" style="text;strokeColor=none;fillColor=none;align=left;verticalAlign=top;spacingLeft=4;spacingRight=4;overflow=hidden;rotatable=0;points=[[0,0.5],[1,0.5]];portConstraint=eastwest;" vertex="1" parent="36">
          <mxGeometry y="110" width="225" height="37" as="geometry" />
        </mxCell>
        <mxCell id="40" style="line;strokeWidth=1;fillColor=none;align=left;verticalAlign=middle;spacingTop=-1;spacingLeft=3;spacingRight=3;rotatable=0;labelPosition=right;points=[];portConstraint=eastwest;strokeColor=inherit;" vertex="1" parent="36">
          <mxGeometry y="147" width="225" height="8" as="geometry" />
        </mxCell>
        <mxCell id="41" value="+registrarPagamento()" style="text;strokeColor=none;fillColor=none;align=left;verticalAlign=top;spacingLeft=4;spacingRight=4;overflow=hidden;rotatable=0;points=[[0,0.5],[1,0.5]];portConstraint=eastwest;" vertex="1" parent="36">
          <mxGeometry y="155" width="225" height="37" as="geometry" />
        </mxCell>
        <mxCell id="42" value="Multa" style="swimlane;fontStyle=1;align=center;verticalAlign=top;childLayout=stackLayout;horizontal=1;startSize=34.666666666666664;horizontalStack=0;resizeParent=1;resizeParentMax=0;resizeLast=0;collapsible=0;marginBottom=0;" vertex="1" parent="1">
          <mxGeometry x="938" y="405" width="179" height="216" as="geometry" />
        </mxCell>
        <mxCell id="43" value="+Double valor" style="text;strokeColor=none;fillColor=none;align=left;verticalAlign=top;spacingLeft=4;spacingRight=4;overflow=hidden;rotatable=0;points=[[0,0.5],[1,0.5]];portConstraint=eastwest;" vertex="1" parent="42">
          <mxGeometry y="35" width="179" height="35" as="geometry" />
        </mxCell>
        <mxCell id="44" value="+String motivo" style="text;strokeColor=none;fillColor=none;align=left;verticalAlign=top;spacingLeft=4;spacingRight=4;overflow=hidden;rotatable=0;points=[[0,0.5],[1,0.5]];portConstraint=eastwest;" vertex="1" parent="42">
          <mxGeometry y="69" width="179" height="35" as="geometry" />
        </mxCell>
        <mxCell id="45" value="+Date dataEmissao" style="text;strokeColor=none;fillColor=none;align=left;verticalAlign=top;spacingLeft=4;spacingRight=4;overflow=hidden;rotatable=0;points=[[0,0.5],[1,0.5]];portConstraint=eastwest;" vertex="1" parent="42">
          <mxGeometry y="104" width="179" height="35" as="geometry" />
        </mxCell>
        <mxCell id="46" value="+Cliente cliente" style="text;strokeColor=none;fillColor=none;align=left;verticalAlign=top;spacingLeft=4;spacingRight=4;overflow=hidden;rotatable=0;points=[[0,0.5],[1,0.5]];portConstraint=eastwest;" vertex="1" parent="42">
          <mxGeometry y="139" width="179" height="35" as="geometry" />
        </mxCell>
        <mxCell id="47" style="line;strokeWidth=1;fillColor=none;align=left;verticalAlign=middle;spacingTop=-1;spacingLeft=3;spacingRight=3;rotatable=0;labelPosition=right;points=[];portConstraint=eastwest;strokeColor=inherit;" vertex="1" parent="42">
          <mxGeometry y="173" width="179" height="8" as="geometry" />
        </mxCell>
        <mxCell id="48" value="+registrarMulta()" style="text;strokeColor=none;fillColor=none;align=left;verticalAlign=top;spacingLeft=4;spacingRight=4;overflow=hidden;rotatable=0;points=[[0,0.5],[1,0.5]];portConstraint=eastwest;" vertex="1" parent="42">
          <mxGeometry y="181" width="179" height="35" as="geometry" />
        </mxCell>
        <mxCell id="49" value="realiza &gt;" style="curved=1;startArrow=none;endArrow=none;exitX=0;exitY=0.84;entryX=1;entryY=0.16;" edge="1" parent="1" source="2" target="20">
          <mxGeometry relative="1" as="geometry">
            <Array as="points">
              <mxPoint x="394" y="357" />
            </Array>
          </mxGeometry>
        </mxCell>
        <mxCell id="50" value="1" style="edgeLabel;resizable=0;labelBackgroundColor=none;fontSize=12;align=right;verticalAlign=top;" vertex="1" parent="49">
          <mxGeometry x="-1" relative="1" as="geometry" />
        </mxCell>
        <mxCell id="51" value="0..*" style="edgeLabel;resizable=0;labelBackgroundColor=none;fontSize=12;align=left;verticalAlign=bottom;" vertex="1" parent="49">
          <mxGeometry x="1" relative="1" as="geometry" />
        </mxCell>
        <mxCell id="52" value="possui &gt;" style="curved=1;startArrow=none;endArrow=none;exitX=0.19;exitY=1;entryX=0.88;entryY=0;" edge="1" parent="1" source="2" target="28">
          <mxGeometry relative="1" as="geometry">
            <Array as="points">
              <mxPoint x="582" y="357" />
            </Array>
          </mxGeometry>
        </mxCell>
        <mxCell id="53" value="1" style="edgeLabel;resizable=0;labelBackgroundColor=none;fontSize=12;align=right;verticalAlign=top;" vertex="1" parent="52">
          <mxGeometry x="-1" relative="1" as="geometry" />
        </mxCell>
        <mxCell id="54" value="0..*" style="edgeLabel;resizable=0;labelBackgroundColor=none;fontSize=12;align=left;verticalAlign=bottom;" vertex="1" parent="52">
          <mxGeometry x="1" relative="1" as="geometry" />
        </mxCell>
        <mxCell id="55" value="realiza &gt;" style="curved=1;startArrow=none;endArrow=none;exitX=0.62;exitY=1;entryX=0.5;entryY=0;" edge="1" parent="1" source="2" target="36">
          <mxGeometry relative="1" as="geometry">
            <Array as="points">
              <mxPoint x="776" y="357" />
            </Array>
          </mxGeometry>
        </mxCell>
        <mxCell id="56" value="1" style="edgeLabel;resizable=0;labelBackgroundColor=none;fontSize=12;align=right;verticalAlign=top;" vertex="1" parent="55">
          <mxGeometry x="-1" relative="1" as="geometry" />
        </mxCell>
        <mxCell id="57" value="0..*" style="edgeLabel;resizable=0;labelBackgroundColor=none;fontSize=12;align=left;verticalAlign=bottom;" vertex="1" parent="55">
          <mxGeometry x="1" relative="1" as="geometry" />
        </mxCell>
        <mxCell id="58" value="recebe &gt;" style="curved=1;startArrow=none;endArrow=none;exitX=1;exitY=0.87;entryX=0.5;entryY=0;" edge="1" parent="1" source="2" target="42">
          <mxGeometry relative="1" as="geometry">
            <Array as="points">
              <mxPoint x="1028" y="357" />
            </Array>
          </mxGeometry>
        </mxCell>
        <mxCell id="59" value="1" style="edgeLabel;resizable=0;labelBackgroundColor=none;fontSize=12;align=left;verticalAlign=top;" vertex="1" parent="58">
          <mxGeometry x="-1" relative="1" as="geometry" />
        </mxCell>
        <mxCell id="60" value="0..*" style="edgeLabel;resizable=0;labelBackgroundColor=none;fontSize=12;align=right;verticalAlign=bottom;" vertex="1" parent="58">
          <mxGeometry x="1" relative="1" as="geometry" />
        </mxCell>
        <mxCell id="61" value="reservado &gt;" style="curved=1;startArrow=none;endArrow=none;exitX=0.32;exitY=1;entryX=0.01;entryY=0;" edge="1" parent="1" source="13" target="20">
          <mxGeometry relative="1" as="geometry">
            <Array as="points">
              <mxPoint x="63" y="357" />
            </Array>
          </mxGeometry>
        </mxCell>
        <mxCell id="62" value="1" style="edgeLabel;resizable=0;labelBackgroundColor=none;fontSize=12;align=right;verticalAlign=top;" vertex="1" parent="61">
          <mxGeometry x="-1" relative="1" as="geometry" />
        </mxCell>
        <mxCell id="63" value="0..*" style="edgeLabel;resizable=0;labelBackgroundColor=none;fontSize=12;align=left;verticalAlign=bottom;" vertex="1" parent="61">
          <mxGeometry x="1" relative="1" as="geometry" />
        </mxCell>
        <mxCell id="64" value="emprestado &gt;" style="curved=1;startArrow=none;endArrow=none;exitX=0.85;exitY=1;entryX=0;entryY=0.11;" edge="1" parent="1" source="13" target="28">
          <mxGeometry relative="1" as="geometry">
            <Array as="points">
              <mxPoint x="267" y="357" />
            </Array>
          </mxGeometry>
        </mxCell>
        <mxCell id="65" value="1" style="edgeLabel;resizable=0;labelBackgroundColor=none;fontSize=12;align=left;verticalAlign=top;" vertex="1" parent="64">
          <mxGeometry x="-1" relative="1" as="geometry" />
        </mxCell>
        <mxCell id="66" value="0..*" style="edgeLabel;resizable=0;labelBackgroundColor=none;fontSize=12;align=right;verticalAlign=bottom;" vertex="1" parent="64">
          <mxGeometry x="1" relative="1" as="geometry" />
        </mxCell>
      </root>
    </mxGraphModel>
  </diagram>
</mxfile>
